<svg width="14" height="14" viewBox="0 0 14 14" fill="none" xmlns="http://www.w3.org/2000/svg">
<path d="M5.57103 4.87895V2.34514C5.57103 1.96611 5.72317 1.60261 5.99398 1.3346C6.26478 1.06658 6.63208 0.916016 7.01506 0.916016C7.39801 0.916089 7.76526 1.06668 8.03605 1.33468C8.30684 1.60268 8.45901 1.96613 8.45908 2.34514V4.87895L13.2203 8.48063C13.3702 8.59404 13.4583 8.77116 13.4583 8.95914V9.63989C13.4583 10.045 13.065 10.3337 12.6785 10.2123L8.41092 8.87209V10.4572L9.63644 11.8736C9.73079 11.9826 9.78271 12.122 9.78271 12.2662V12.8413C9.78271 13.2938 9.30102 13.5834 8.90139 13.3713L7.46361 12.6081C7.1708 12.4527 6.81999 12.4524 6.52698 12.6075L5.08046 13.3731C4.68086 13.5845 4.1998 13.2949 4.1998 12.8428V12.2288C4.1998 12.089 4.24866 11.9535 4.33793 11.8458L5.5268 10.4121V8.88816L1.31192 10.1875C0.926021 10.3065 0.535156 10.018 0.535156 9.61418V9.00375C0.535156 8.81624 0.62282 8.63951 0.772112 8.52605L5.57103 4.87895Z" stroke="#09375D" stroke-miterlimit="10" stroke-linecap="round"/>
</svg>
