<svg width="24" height="28" viewBox="0 0 24 28" fill="none" xmlns="http://www.w3.org/2000/svg">
<g clip-path="url(#clip0_171_3109)">
<path fill-rule="evenodd" clip-rule="evenodd" d="M6.98257 7.13343L5.18065 6.07998V3.97417L6.98257 2.92115L8.78448 3.97417V6.07998L6.98257 7.13343Z" fill="#42B02B"/>
<path fill-rule="evenodd" clip-rule="evenodd" d="M6.98257 13.1099L5.18065 12.0569V9.95066L6.98257 8.89764L8.78448 9.95066V12.0569L6.98257 13.1099Z" fill="#42B02B"/>
<path fill-rule="evenodd" clip-rule="evenodd" d="M6.98257 19.0868L5.18065 18.0334V15.9276L6.98257 14.8746L8.78448 15.9276V18.0334L6.98257 19.0868Z" fill="#42B02B"/>
<path fill-rule="evenodd" clip-rule="evenodd" d="M6.98257 25.0638L5.18065 24.0099V21.9045L6.98257 20.8511L8.78448 21.9045V24.0099L6.98257 25.0638Z" fill="#42B02B"/>
<path fill-rule="evenodd" clip-rule="evenodd" d="M17.0115 7.13343L15.2095 6.07998V3.97417L17.0115 2.92115L18.8138 3.97417V6.07998L17.0115 7.13343Z" fill="#42B02B"/>
<path fill-rule="evenodd" clip-rule="evenodd" d="M17.0115 13.1099L15.2095 12.0569V9.95066L17.0115 8.89764L18.8138 9.95066V12.0569L17.0115 13.1099Z" fill="#42B02B"/>
<path fill-rule="evenodd" clip-rule="evenodd" d="M17.0115 19.0868L15.2095 18.0334V15.9276L17.0115 14.8746L18.8138 15.9276V18.0334L17.0115 19.0868Z" fill="#42B02B"/>
<path fill-rule="evenodd" clip-rule="evenodd" d="M17.0115 25.0638L15.2095 24.0099V21.9045L17.0115 20.8511L18.8138 21.9045V24.0099L17.0115 25.0638Z" fill="#42B02B"/>
<path fill-rule="evenodd" clip-rule="evenodd" d="M20.3236 7.00941V9.11566L22.1251 10.1685L23.9275 9.11566V7.00941L22.1251 5.9564L20.3236 7.00941Z" fill="white"/>
<path fill-rule="evenodd" clip-rule="evenodd" d="M20.3236 12.9863V15.0923L22.1251 16.1455L23.9275 15.0923V12.9863L22.1251 11.9328L20.3236 12.9863Z" fill="#42B02B"/>
<path fill-rule="evenodd" clip-rule="evenodd" d="M20.3236 18.9627V21.069L22.1251 22.122L23.9275 21.069V18.9627L22.1251 17.9097L20.3236 18.9627Z" fill="white"/>
<path fill-rule="evenodd" clip-rule="evenodd" d="M0 7.00941V9.11566L1.80192 10.1685L3.60426 9.11566V7.00941L1.80192 5.9564L0 7.00941Z" fill="white"/>
<path fill-rule="evenodd" clip-rule="evenodd" d="M0 12.9863V15.0923L1.80192 16.1455L3.60426 15.0923V12.9863L1.80192 11.9328L0 12.9863Z" fill="#42B02B"/>
<path fill-rule="evenodd" clip-rule="evenodd" d="M0 18.9627V21.069L1.80192 22.122L3.60426 21.069V18.9627L1.80192 17.9097L0 18.9627Z" fill="white"/>
<path fill-rule="evenodd" clip-rule="evenodd" d="M11.8969 0.0001297L10.0954 1.05315V3.15918L11.8969 4.21219L13.6993 3.15918V1.05315L11.8969 0.0001297Z" fill="white"/>
<path fill-rule="evenodd" clip-rule="evenodd" d="M11.897 10.1555L10.0955 9.10209V6.99627L11.897 5.94283L13.6993 6.99627V9.10209L11.897 10.1555Z" fill="#42B02B"/>
<path fill-rule="evenodd" clip-rule="evenodd" d="M11.897 16.0984L10.0955 15.0454V12.9391L11.897 11.8861L13.6993 12.9391V15.0454L11.897 16.0984Z" fill="white"/>
<path fill-rule="evenodd" clip-rule="evenodd" d="M11.897 22.0416L10.0955 20.9882V18.8824L11.897 17.8289L13.6993 18.8824V20.9882L11.897 22.0416Z" fill="#42B02B"/>
<path fill-rule="evenodd" clip-rule="evenodd" d="M10.0954 24.8256V26.9316L11.8969 27.9849L13.6992 26.9316V24.8256L11.8969 23.7722L10.0954 24.8256Z" fill="white"/>
</g>
<defs>
<clipPath id="clip0_171_3109">
<rect width="24" height="28" fill="white"/>
</clipPath>
</defs>
</svg>
