<svg width="14" height="14" viewBox="0 0 14 14" fill="none" xmlns="http://www.w3.org/2000/svg">
<path d="M5.74684 10.6512H8.16684V2.82832C8.16684 2.40789 7.74563 2.11783 7.35284 2.26778L0.897725 4.7321C0.665279 4.82084 0.511719 5.04383 0.511719 5.29264V10.0512C0.511719 10.3825 0.780348 10.6512 1.11172 10.6512H2.53822" stroke="#422500" stroke-miterlimit="10" stroke-linecap="round"/>
<path d="M7.64453 2.22852H10.4231" stroke="#422500" stroke-miterlimit="10" stroke-linecap="round"/>
<path d="M12.245 10.6513H12.8595C13.228 10.6513 13.5095 10.322 13.4521 9.95793L12.6265 4.71557C12.5652 4.32659 12.23 4.04004 11.8362 4.04004H8.16797V10.6513H9.25155" stroke="#422500" stroke-miterlimit="10" stroke-linecap="round"/>
<path d="M9.55078 4.12793V7.09157C9.55078 7.42294 9.81941 7.69157 10.1508 7.69157H13.0304" stroke="#422500" stroke-miterlimit="10" stroke-linecap="round"/>
<path d="M10.8666 12.0428C11.5977 12.0428 12.1903 11.4502 12.1903 10.7192C12.1903 9.98813 11.5977 9.39551 10.8666 9.39551C10.1356 9.39551 9.54297 9.98813 9.54297 10.7192C9.54297 11.4502 10.1356 12.0428 10.8666 12.0428Z" stroke="#422500" stroke-miterlimit="10" stroke-linecap="round"/>
<path d="M4.33928 12.0428C5.07031 12.0428 5.66293 11.4502 5.66293 10.7192C5.66293 9.98813 5.07031 9.39551 4.33928 9.39551C3.60824 9.39551 3.01562 9.98813 3.01562 10.7192C3.01562 11.4502 3.60824 12.0428 4.33928 12.0428Z" stroke="#422500" stroke-miterlimit="10" stroke-linecap="round"/>
</svg>
