<svg width="11" height="11" viewBox="0 0 11 11" fill="none" xmlns="http://www.w3.org/2000/svg">
<path fill-rule="evenodd" clip-rule="evenodd" d="M3.78508 0C1.68948 0 0 1.6859 0 3.75527C0 5.82465 1.68948 7.51055 3.78508 7.51055C4.64004 7.51055 5.42741 7.22993 6.06003 6.75714L9.18703 9.88415L9.25239 9.93812C9.43717 10.063 9.69894 10.0361 9.87251 9.86252C10.0678 9.66725 10.0775 9.36036 9.89414 9.17704L6.7752 6.0581C7.27373 5.42159 7.57015 4.62207 7.57015 3.75527C7.57015 1.6859 5.88068 0 3.78508 0ZM3.78508 0.804823C5.40081 0.804823 6.71996 2.12118 6.71996 3.75527C6.71996 5.38937 5.40081 6.70572 3.78508 6.70572C2.16935 6.70572 0.850197 5.38937 0.850197 3.75527C0.850197 2.12118 2.16935 0.804823 3.78508 0.804823Z" fill="#A3A3A3"/>
</svg>
