<svg width="14" height="15" viewBox="0 0 14 15" fill="none" xmlns="http://www.w3.org/2000/svg">
<path fill-rule="evenodd" clip-rule="evenodd" d="M7 14.3571C10.7871 14.3571 13.8571 11.2871 13.8571 7.5C13.8571 3.71291 10.7871 0.64286 7 0.64286C3.2129 0.64286 0.142853 3.71291 0.142853 7.5C0.142853 11.2871 3.2129 14.3571 7 14.3571ZM10.2981 4.14721L5.48081 8.97016L3.6903 7.18162C3.58881 7.08024 3.42597 7.08095 3.32534 7.18321L2.66787 7.85128C2.56587 7.95491 2.56658 8.12327 2.66944 8.22602L5.29932 10.853C5.40019 10.9538 5.56183 10.9538 5.66271 10.853L11.3305 5.1914C11.434 5.08804 11.434 4.91844 11.3305 4.81507L10.6617 4.147C10.5608 4.04616 10.399 4.04625 10.2981 4.14721Z" fill="#008D5E"/>
</svg>
