<svg width="14" height="14" viewBox="0 0 14 14" fill="none" xmlns="http://www.w3.org/2000/svg">
<path fill-rule="evenodd" clip-rule="evenodd" d="M8.00973 7.1777C8.20499 6.98243 8.52157 6.98243 8.71683 7.1777L9.59089 8.05175C9.78615 8.24701 9.78615 8.56359 9.59089 8.75886C9.39562 8.95412 9.07904 8.95412 8.88378 8.75886L8.00973 7.8848C7.81447 7.68954 7.81447 7.37296 8.00973 7.1777Z" fill="#006265"/>
<path fill-rule="evenodd" clip-rule="evenodd" d="M5.91215 7.1777C5.71689 6.98243 5.4003 6.98243 5.20504 7.1777L4.33099 8.05175C4.13573 8.24701 4.13573 8.56359 4.33099 8.75886C4.52625 8.95412 4.84283 8.95412 5.03809 8.75886L5.91215 7.8848C6.10741 7.68954 6.10741 7.37296 5.91215 7.1777Z" fill="#006265"/>
<path fill-rule="evenodd" clip-rule="evenodd" d="M5.06641 4.12891C5.06641 3.85276 5.29026 3.62891 5.56641 3.62891H8.36337C8.63952 3.62891 8.86337 3.85276 8.86337 4.12891C8.86337 4.40505 8.63952 4.62891 8.36337 4.62891H5.56641C5.29026 4.62891 5.06641 4.40505 5.06641 4.12891Z" fill="#006265"/>
<path fill-rule="evenodd" clip-rule="evenodd" d="M4.48496 12.9127C4.17452 12.7973 3.83731 12.7424 3.49746 12.7533C3.15762 12.7642 2.82646 12.8405 2.52744 12.975L2.51916 12.9787L0.692873 13.7605C0.439016 13.8691 0.145122 13.7515 0.0364432 13.4976C-0.0722358 13.2437 0.0454544 12.9498 0.299312 12.8412L2.12155 12.061C2.5413 11.8729 2.9997 11.7688 3.46543 11.7538C3.93271 11.7388 4.3993 11.814 4.83339 11.9754C4.83336 11.9754 4.83343 11.9754 4.83339 11.9754L5.65916 12.2823L5.67467 12.2895C5.67521 12.2897 5.67601 12.2901 5.67706 12.2905C5.68142 12.2924 5.69012 12.296 5.70302 12.3011C5.72885 12.3111 5.77141 12.3267 5.82959 12.3448C5.946 12.3809 6.1243 12.4265 6.3556 12.4573C6.81443 12.5182 7.48489 12.521 8.30095 12.2704L9.09467 11.9754C9.09463 11.9754 9.0947 11.9754 9.09467 11.9754C9.52875 11.814 9.99544 11.7388 10.4627 11.7538C10.9285 11.7688 11.3868 11.8729 11.8066 12.061L13.6288 12.8412C13.8827 12.9498 14.0004 13.2437 13.8917 13.4976C13.783 13.7515 13.4891 13.8691 13.2353 13.7605L11.4007 12.9751C11.1017 12.8406 10.7705 12.7642 10.4307 12.7533C10.0909 12.7424 9.75364 12.7973 9.4432 12.9127L8.62305 13.2175L8.60983 13.2216C7.63349 13.5241 6.81084 13.5266 6.22388 13.4486C5.93106 13.4097 5.69764 13.3508 5.53337 13.2999C5.4512 13.2744 5.38618 13.2509 5.3395 13.2326C5.31615 13.2235 5.29737 13.2157 5.28331 13.2097L5.27838 13.2076L4.48496 12.9127Z" fill="#006265"/>
<path fill-rule="evenodd" clip-rule="evenodd" d="M4.48899 11.1608C4.17855 11.0453 3.84134 10.9905 3.5015 11.0014C3.16165 11.0122 2.83049 11.0885 2.53147 11.223L2.52319 11.2267L0.696909 12.0085C0.443052 12.1172 0.149158 11.9995 0.0404792 11.7456C-0.0681998 11.4918 0.0494903 11.1979 0.303348 11.0892L2.12559 10.3091C2.54534 10.121 3.00373 10.0168 3.46946 10.0019C3.93675 9.98689 4.40334 10.062 4.83743 10.2234C4.83739 10.2234 4.83746 10.2234 4.83743 10.2234L5.6632 10.5303L5.67871 10.5375C5.67925 10.5378 5.68005 10.5381 5.6811 10.5386C5.68545 10.5404 5.69415 10.5441 5.70706 10.5491C5.73288 10.5592 5.77545 10.5748 5.83362 10.5928C5.95004 10.6289 6.12834 10.6746 6.35963 10.7053C6.81846 10.7663 7.48892 10.7691 8.30498 10.5184L9.0987 10.2235C9.09867 10.2235 9.09873 10.2235 9.0987 10.2235C9.53279 10.0621 9.99948 9.98689 10.4668 10.0019C10.9325 10.0168 11.3909 10.121 11.8106 10.3091L13.6329 11.0892C13.8867 11.1979 14.0044 11.4918 13.8958 11.7456C13.7871 11.9995 13.4932 12.1172 13.2393 12.0085L11.4047 11.2231C11.1057 11.0886 10.7746 11.0122 10.4347 11.0014C10.0949 10.9905 9.75768 11.0453 9.44724 11.1608L8.62708 11.4655L8.61386 11.4696C7.63753 11.7721 6.81487 11.7746 6.22791 11.6966C5.9351 11.6577 5.70168 11.5989 5.53741 11.5479C5.45524 11.5225 5.39021 11.4989 5.34354 11.4807C5.32019 11.4716 5.30141 11.4638 5.28734 11.4578L5.28241 11.4556L4.48899 11.1608Z" fill="#006265"/>
<path fill-rule="evenodd" clip-rule="evenodd" d="M4.34554 2.96191C4.21641 2.96191 4.10177 3.04454 4.06093 3.16705L2.98408 6.39766L6.81927 5.21981L6.96614 5.1747L10.9471 6.39759L9.87028 3.16705C9.82944 3.04454 9.7148 2.96191 9.58567 2.96191H4.34554ZM12.1216 6.75886L10.819 2.85082C10.642 2.31998 10.1452 1.96191 9.58567 1.96191H4.34554C3.78598 1.96191 3.28919 2.31998 3.11225 2.85082L1.8095 6.75911L0.931285 7.02895C0.818954 7.06353 0.715055 7.12175 0.626997 7.19956C0.538891 7.2774 0.468476 7.37309 0.420343 7.48018C0.372202 7.58729 0.347406 7.70346 0.347658 7.82096C0.34791 7.93826 0.373119 8.05414 0.421568 8.1609C0.421489 8.16073 0.421647 8.16107 0.421568 8.1609L1.73288 11.0589L2.64396 10.6467L1.41333 7.92698L6.96612 6.22083L12.5186 7.92698L11.288 10.6467L12.199 11.0589L13.5098 8.16198C13.5097 8.16222 13.51 8.16173 13.5098 8.16198C13.5584 8.05525 13.5841 7.93862 13.5844 7.82125C13.5847 7.70366 13.5599 7.58735 13.5117 7.4801C13.4635 7.37285 13.393 7.2771 13.3048 7.19927C13.2167 7.12153 13.113 7.06345 13.0006 7.02896L12.1216 6.75886ZM1.33214 7.74755C1.33202 7.74728 1.33226 7.74782 1.33214 7.74755V7.74755Z" fill="#006265"/>
<path fill-rule="evenodd" clip-rule="evenodd" d="M6.96094 5.2832C7.23708 5.2832 7.46094 5.50706 7.46094 5.7832V11.3771C7.46094 11.6533 7.23708 11.8771 6.96094 11.8771C6.6848 11.8771 6.46094 11.6533 6.46094 11.3771V5.7832C6.46094 5.50706 6.6848 5.2832 6.96094 5.2832Z" fill="#006265"/>
<path fill-rule="evenodd" clip-rule="evenodd" d="M6.26797 1.41113C6.21274 1.41113 6.16797 1.4559 6.16797 1.51113V2.34308H5.16797V1.51113C5.16797 0.90362 5.66046 0.411133 6.26797 0.411133H8.00678C8.61429 0.411133 9.10678 0.903619 9.10678 1.51113V2.34308H8.10678V1.51113C8.10678 1.45591 8.062 1.41113 8.00678 1.41113H6.26797Z" fill="#006265"/>
</svg>
